<svg width="24" height="24" viewBox="0 0 24 24" fill="none" xmlns="http://www.w3.org/2000/svg">
<path fill-rule="evenodd" clip-rule="evenodd" d="M15.5 11C15.5 14.0376 13.0376 16.5 10 16.5C6.96243 16.5 4.5 14.0376 4.5 11C4.5 7.96243 6.96243 5.5 10 5.5C13.0376 5.5 15.5 7.96243 15.5 11ZM14.3974 16.4467C13.1956 17.4182 11.6657 18 10 18C6.13401 18 3 14.866 3 11C3 7.13401 6.13401 4 10 4C13.866 4 17 7.13401 17 11C17 12.6657 16.4182 14.1956 15.4467 15.3974C15.4759 15.4191 15.5038 15.4432 15.5303 15.4697L19.5303 19.4697C19.8232 19.7626 19.8232 20.2374 19.5303 20.5303C19.2374 20.8232 18.7626 20.8232 18.4697 20.5303L14.4697 16.5303C14.4432 16.5038 14.4191 16.4759 14.3974 16.4467Z" fill="#ffffff"/>
</svg>
