<svg width="47" height="45" viewBox="0 0 47 45" fill="none" xmlns="http://www.w3.org/2000/svg">
<rect x="4.77966" width="35.4407" height="41" rx="5" fill="#212225"/>
<path d="M30.2187 16.3137L30.2192 16.3063L30.2195 16.2988C30.2259 16.1268 30.2486 16.0185 30.2708 15.9561C30.2944 15.9657 30.3253 15.9802 30.3644 16.0019C30.5276 16.0924 30.7527 16.2651 31.0442 16.5445L31.0442 16.5445L31.0485 16.5485C31.6276 17.0907 32.2941 17.82 33.0489 18.7421L33.0488 18.7422L33.0559 18.7506C33.8213 19.6448 34.6185 20.6482 35.4477 21.7613L35.4476 21.7613L35.4518 21.7668C36.3026 22.8767 37.0916 23.9376 37.8189 24.9494L37.8188 24.9494L37.8249 24.9576C38.5657 25.945 39.2033 26.8031 39.7379 27.5322C40.2598 28.2438 40.6406 28.7305 40.8506 28.9259C41.2135 29.2727 41.6297 29.5005 42.0976 29.5553L42.1184 29.5577L42.1394 29.5584C42.5818 29.5729 43.0896 29.4538 43.6432 29.243C44.1039 29.0676 44.5212 28.7964 44.8947 28.4378C45.279 28.0796 45.594 27.6794 45.8358 27.237C46.0761 26.7974 46.2343 26.3425 46.3039 25.8737C46.3858 25.3674 46.3509 24.8826 46.1799 24.4334C46.077 24.1633 45.9522 23.9211 45.7966 23.7243C45.6786 23.538 45.4799 23.2427 45.2048 22.8436L45.2003 22.837L45.1956 22.8306C44.1753 21.4469 43.1044 19.9867 41.9829 18.4499C40.8693 16.881 39.7488 15.3506 38.6213 13.8585C37.5107 12.3569 36.4088 10.9351 35.3155 9.59346C34.2183 8.24699 33.1699 7.09191 32.1704 6.13071C31.1889 5.16171 30.2612 4.41776 29.3873 3.91328C28.5016 3.40192 27.632 3.19772 26.8486 3.49603C26.3031 3.70378 25.8354 4.00222 25.4574 4.39685C25.0631 4.77906 24.7667 5.28338 24.5526 5.88414C24.3298 6.4663 24.1704 7.17641 24.0665 8.00408C23.9634 8.82478 23.8784 9.82793 23.8106 11.0111L23.8104 11.0152C23.7002 13.2588 23.5742 15.0591 23.4327 16.4193L23.4326 16.4193L23.432 16.4258C23.3089 17.7809 23.1498 18.8186 22.9597 19.5516L22.9591 19.5537C22.7764 20.2714 22.5727 20.7114 22.3817 20.9418C22.1806 21.1681 21.9437 21.3317 21.6659 21.4374C21.4802 21.5082 21.1453 21.5113 20.589 21.3029C20.0272 21.0742 19.3802 20.7106 18.6459 20.2018C17.9183 19.6621 17.1303 19.0004 16.2814 18.2147C15.4513 17.4218 14.6196 16.5447 13.7867 15.5829L13.7851 15.5811C11.6874 13.1825 9.92072 11.4984 8.49125 10.5666C7.07736 9.61032 5.73236 9.23561 4.534 9.69196C3.2439 10.1832 2.37189 11.2791 1.8713 12.8497L1.87113 12.8503C1.38705 14.3752 1.2209 16.3157 1.34767 18.6499L1.34766 18.6499L1.34782 18.6526C1.48593 20.965 1.92822 23.6352 2.66911 26.6592L2.6691 26.6592L2.66978 26.6619C3.42232 29.6608 4.46803 32.9164 5.8052 36.4278C6.86067 39.1995 7.85527 41.1948 8.79941 42.3595C9.27646 42.948 9.79176 43.3826 10.3539 43.6107C10.9303 43.8446 11.5242 43.8478 12.1089 43.6251C12.6261 43.4282 13.0883 43.1596 13.4909 42.8175C13.9 42.4784 14.2291 42.1 14.4669 41.6796C14.7272 41.2796 14.9007 40.8527 14.9803 40.4008L14.9805 40.4009L14.9826 40.387C15.0548 39.8976 15.0044 39.4195 14.8299 38.9611C14.4018 37.837 13.9284 36.765 13.4095 35.7453C12.9242 34.7487 12.4852 33.7346 12.0924 32.703C11.4255 30.9516 10.8563 29.3448 10.3845 27.8819C9.923 26.3898 9.5748 25.1122 9.33814 24.0471L9.33783 24.0457C9.09199 22.9542 8.97181 22.1194 8.96353 21.5266L8.96357 21.5266L8.96342 21.5208C8.9555 21.2104 8.98021 21.0101 9.01492 20.8942C9.01791 20.8842 9.02078 20.8754 9.02346 20.8678C9.02513 20.868 9.02685 20.8682 9.02861 20.8685C9.08181 20.8763 9.16351 20.8991 9.27813 20.9515L9.29991 20.9615L9.32254 20.9693C9.52596 21.0398 9.79731 21.2094 10.1383 21.5263C12.3506 23.6111 14.1853 25.2919 15.6414 26.5672L15.6414 26.5672L15.6449 26.5702C17.1215 27.8398 18.3744 28.8124 19.4001 29.4801L19.4001 29.4801L19.4058 29.4837C20.4451 30.1404 21.3643 30.5623 22.1491 30.6996L22.1594 30.7014L22.1697 30.7028C22.9549 30.8066 23.7265 30.7137 24.4775 30.4277C25.2765 30.1234 25.9975 29.5452 26.6483 28.7366L26.6484 28.7367L26.6544 28.729C27.2942 27.9015 27.8532 26.8736 28.3373 25.6556C28.8221 24.4357 29.22 23.0349 29.5337 21.4567C29.8669 19.8683 30.0948 18.1536 30.2187 16.3137ZM9.04423 20.8217C9.04427 20.8218 9.04357 20.823 9.042 20.8249C9.0434 20.8226 9.04418 20.8216 9.04423 20.8217Z" fill="white" stroke="black"/>
</svg>
